<svg width="365" height="310" viewBox="0 0 365 310" fill="none" xmlns="http://www.w3.org/2000/svg">
<path d="M168.133 303.18H168.127C168.245 303.316 168.363 303.441 168.487 303.565C168.363 303.441 168.245 303.31 168.133 303.18Z" fill="white"/>
<path d="M361.112 109.622C353.512 114.071 345.882 118.47 338.208 122.795C336.406 123.808 335.586 124.939 335.598 127.144C335.698 144.325 335.691 161.506 335.58 178.687C335.567 180.893 336.499 182.03 338.14 183.174C345.074 188.014 347.883 196.813 345.186 204.878C342.533 212.826 334.747 218.225 326.383 217.927C317.796 217.616 310.414 211.695 308.326 203.437C306.412 195.843 309.358 187.641 315.795 183.217C317.622 181.962 318.312 180.583 318.293 178.37C318.193 164.812 318.243 151.26 318.225 137.702C318.218 134.371 318.249 134.495 315.267 136.024C305.542 141.007 296.476 147.128 286.87 152.316C285.907 152.161 285.801 151.477 285.901 150.694C286.74 143.81 282.962 139.951 277.394 136.813C266.607 130.724 255.994 124.317 245.331 118.004C244.654 117.606 244.169 116.886 243.591 116.314C243.722 115.543 243.846 114.792 243.977 114.027C244.014 113.76 244.051 113.487 244.082 113.219C245.803 96.2311 241.653 80.8832 231.294 67.244C230.934 66.7656 230.567 66.2995 230.188 65.8397C229.847 65.4172 229.499 65.0071 229.144 64.597C229.076 64.5162 229.002 64.4354 228.933 64.3546C228.585 63.957 228.231 63.5655 227.871 63.1802C227.548 62.8323 227.218 62.4843 226.883 62.1426L226.734 61.9934C226.628 61.8816 226.522 61.7759 226.41 61.6703C226.081 61.3348 225.746 61.0117 225.41 60.6948C225.025 60.3281 224.64 59.974 224.248 59.6198C224.186 59.5701 224.13 59.5141 224.068 59.4644C223.683 59.1165 223.291 58.7747 222.893 58.4392C222.838 58.3895 222.782 58.3397 222.726 58.2962C222.365 57.9918 222.005 57.6935 221.632 57.4015C221.52 57.3083 221.415 57.2213 221.303 57.1343C220.905 56.8174 220.501 56.5067 220.091 56.196C219.681 55.8853 219.271 55.5871 218.861 55.2888C218.482 55.0154 218.096 54.742 217.711 54.481C217.668 54.4437 217.624 54.4189 217.587 54.394C217.177 54.1082 216.76 53.8286 216.344 53.5552C215.922 53.2756 215.493 52.9959 215.058 52.7225C213.337 51.6227 211.56 50.585 209.745 49.597H209.739C208.962 49.3174 208.173 49.0813 207.421 48.7457C195.118 43.2963 182.318 41.892 169.213 44.7006C155.17 47.708 143.32 54.5991 134.074 65.7652C127.997 73.1098 124.045 81.4859 121.081 90.4834C119.951 93.9196 120.466 97.362 119.938 100.773C119.124 105.999 119.441 111.424 120.274 116.482C121.958 126.747 125.891 136.31 132.962 144.288C136.181 147.911 139.058 151.999 143.035 154.702C148.18 158.188 153.312 161.805 159.283 163.998C161.906 164.961 164.689 165.166 167.218 166.223C171.618 168.062 176.384 168.515 180.858 168.279C194.41 167.571 205.302 179.893 202.326 193.259C199.207 207.233 184.704 213.826 171.438 206.736C158.948 200.063 146.868 192.637 134.571 185.597C129.936 182.944 125.555 179.831 120.497 177.96C117.005 175.804 113.563 173.573 110.021 171.51C100.682 166.073 91.3176 160.692 81.9349 155.342C80.7232 154.646 79.5985 153.584 78.0078 153.814C76.1064 150.862 72.7634 149.924 69.9797 148.302C47.7594 135.353 25.4583 122.552 3.1696 109.715C1.52918 108.77 0.0378796 107.857 0.000597234 105.558C-0.0366852 103.166 1.67831 102.339 3.25038 101.444C13.0867 95.8148 22.9976 90.3094 32.8278 84.6611C42.7635 78.9569 52.6185 73.1222 62.5294 67.3807C73.4966 61.0303 84.4266 54.6053 95.487 48.4226C102.813 44.3278 110.214 40.2826 117.347 35.9206C129.675 28.3895 142.363 21.4985 154.747 14.0855C161.806 9.86019 168.94 5.7467 176.098 1.68913C179.646 -0.324117 183.523 -0.659658 187.102 1.34738C197.212 6.99566 207.204 12.8614 217.233 18.6588C217.388 18.752 217.456 18.9882 217.568 19.1622C223.602 22.5797 229.654 25.9538 235.656 29.421C252.999 39.4314 270.317 49.4976 287.665 59.5017C303.579 68.6732 319.523 77.7949 335.449 86.9416C344.024 91.8691 352.587 96.809 361.149 101.755C365.387 104.21 365.405 107.111 361.112 109.622Z" fill="#8F00FF"/>
<path d="M168.485 303.565C168.361 303.441 168.243 303.316 168.125 303.18H168.131C168.243 303.31 168.361 303.441 168.485 303.565Z" fill="#64ABB0"/>
<path d="M243.591 116.307C243.156 116.412 242.752 116.412 242.379 116.344C242.758 116.412 243.156 116.406 243.591 116.307Z" fill="#64ABB0"/>
<path d="M215.057 52.7228C213.33 51.6292 211.553 50.5915 209.738 49.6035H209.744C211.559 50.5853 213.336 51.623 215.057 52.7228Z" fill="#296986"/>
<path d="M286.274 241.918C286.336 248.759 284.018 253.494 277.792 256.247C270.92 259.286 264.83 263.691 258.299 267.314C245.642 274.335 233.314 281.935 220.669 288.981C213.107 293.194 205.694 297.724 198.275 302.21C195.118 304.118 191.757 305.621 188.693 307.753C184.288 310.816 179.534 310.648 175.029 307.622C173.327 306.479 171.338 305.764 169.667 304.565C169.387 304.366 169.12 304.155 168.859 303.925C168.735 303.813 168.604 303.689 168.486 303.565C168.362 303.44 168.244 303.31 168.132 303.179H168.126C167.61 302.906 167.101 302.633 166.591 302.359C166.392 302.253 166.2 302.148 166.001 302.042C165.777 301.906 165.547 301.763 165.323 301.62C165.212 301.427 165.05 301.346 164.826 301.396L164.69 301.321C164.503 300.849 164.124 300.712 163.664 300.712L163.521 300.625C163.335 299.849 162.825 299.569 162.067 299.681C161.688 299.47 161.309 299.258 160.924 299.053C160.849 298.91 160.731 298.855 160.576 298.886L160.402 298.792V296.071C159.433 296.319 158.755 297.276 157.712 297.189C157.333 296.978 156.96 296.767 156.581 296.562C156.519 296.462 156.425 296.406 156.307 296.4C155.934 296.22 155.568 296.034 155.195 295.853L155.164 295.822C155.009 295.754 154.884 295.661 154.779 295.53L154.201 295.195C153.983 295.089 153.772 294.983 153.555 294.884C153.374 294.772 153.2 294.66 153.026 294.548C137.032 285.352 121.032 276.162 105.038 266.966C98.0846 262.97 91.1376 258.95 84.1782 254.961C80.9844 253.128 78.6231 250.704 78.1571 246.864C78.1758 218.871 78.2006 190.879 78.1882 162.886C78.1882 160.431 78.6542 157.952 77.9707 155.51C77.9831 154.944 77.9956 154.379 78.008 153.814C79.5987 153.584 80.7234 154.646 81.9351 155.342C91.3178 160.692 100.682 166.073 110.021 171.51C113.563 173.573 117.005 175.804 120.497 177.96C120.348 178.929 120.199 179.905 120.05 180.874C120.019 181.148 119.988 181.421 119.957 181.688C118.764 191.742 119.466 201.454 123.493 210.992C131.931 230.976 146.222 244.099 167.237 249.766C167.846 249.754 168.53 249.617 168.635 250.53C171.059 250.164 173.352 251.034 175.713 251.257C176.427 251.214 177.148 251.108 177.863 251.146C193.969 252.003 208.422 247.635 221.104 237.55C227.56 232.411 233.053 226.266 236.781 219.058C243.194 206.661 245.878 193.463 243.585 179.302C241.678 167.521 237.167 156.995 229.393 148.221C217.419 134.7 202.295 127.287 183.927 126.734C169.108 126.287 160.545 117.171 161.347 103.42C161.856 94.6961 169.654 86.6431 178.204 85.1829C184.474 84.1079 189.725 86.0652 194.876 89.0478C209.696 97.6228 224.497 106.241 239.329 114.798C239.677 114.996 240.025 115.226 240.373 115.45C240.51 115.537 240.652 115.624 240.795 115.711C241.168 115.935 241.553 116.127 241.964 116.245C242.1 116.289 242.237 116.32 242.38 116.345C242.753 116.413 243.157 116.413 243.592 116.314C244.169 116.885 244.654 117.606 245.331 118.004C255.994 124.317 266.607 130.723 277.394 136.813C282.962 139.951 286.74 143.809 285.901 150.694C285.801 151.477 285.907 152.161 286.87 152.316C285.864 153.696 286.162 155.292 286.162 156.821C286.156 185.187 286.031 213.552 286.274 241.918Z" fill="#8F00FF"/>
<path d="M78.1878 162.885C78.2002 190.878 78.1754 218.871 78.1567 246.864C77.4856 245.833 77.6534 244.671 77.6534 243.546C77.6534 215.118 77.6658 186.69 77.6907 158.256C77.6907 157.343 77.8709 156.423 77.9703 155.51C78.6538 157.952 78.1878 160.431 78.1878 162.885Z" fill="#64ABB0"/>
<path d="M160.403 296.01V298.719C159.247 298.675 158.278 298.309 157.787 297.122C158.8 297.209 159.459 296.258 160.403 296.01Z" fill="#8F00FF"/>
<path d="M215.057 52.7228C213.33 51.6292 211.553 50.5915 209.738 49.6035H209.744C211.559 50.5853 213.336 51.623 215.057 52.7228Z" fill="white"/>
<path d="M243.591 116.307C243.156 116.412 242.752 116.412 242.379 116.344C242.758 116.412 243.156 116.406 243.591 116.307Z" fill="white"/>
<path d="M244.082 113.221C244.051 113.488 244.014 113.761 243.977 114.028C243.629 113.712 243.666 113.438 244.082 113.221Z" fill="#64ABB0"/>
</svg>
